<svg width="193" height="444" viewBox="0 0 193 444" fill="none" xmlns="http://www.w3.org/2000/svg">
<g id="undraw_fireworks_re_2xi7 1">
<g id="right-leg">
<path id="Vector" d="M130.386 436.094L142.346 436.092L148.035 388.037L130.384 388.038L130.386 436.094Z" fill="#A0616A"/>
<path id="Vector_2" d="M171.361 435.811C171.734 436.464 171.93 438.573 171.93 439.333C171.93 441.668 170.113 443.561 167.871 443.561H130.833C129.304 443.561 128.064 442.27 128.064 440.676V439.07C128.064 439.07 126.232 434.242 130.004 428.292C130.004 428.292 134.693 432.951 141.698 425.653L143.764 421.755L158.718 433.148L167.007 434.21C168.821 434.443 170.428 434.174 171.361 435.811H171.361V435.811Z" fill="#2F2E41"/>
</g>
<g id="left-leg">
<path id="Vector_3" d="M47.7898 436.094L59.7494 436.092L65.4387 388.037L47.7874 388.038L47.7898 436.094Z" fill="#A0616A"/>
<path id="l" d="M88.765 435.811C89.1373 436.464 89.3339 438.573 89.3339 439.333C89.3339 441.668 87.5165 443.561 85.2747 443.561H48.2372C46.7078 443.561 45.4681 442.27 45.4681 440.676V439.07C45.4681 439.07 43.6358 434.242 47.4081 428.292C47.4081 428.292 52.0965 432.951 59.1021 425.653L61.1679 421.755L76.1221 433.148L84.411 434.21C86.2244 434.443 87.8322 434.174 88.765 435.811H88.765V435.811Z" fill="#2F2E41"/>
</g>
<path id="leg" d="M133.961 209.135L138.393 215.209C138.393 215.209 138.795 218.044 145.517 241.151L149.206 414.819H126.894L97.0757 275.863L66.1251 417.606L46.7859 418.794L47.6928 257.689C47.6928 257.689 45.6563 252.082 47.3887 245.512C54.0189 220.367 53.6366 226.997 53.9087 218.389C54.2537 207.475 133.961 209.135 133.961 209.135Z" fill="#2F2E41"/>
<path id="chest" d="M86.2058 67.7842L73.2518 75.2424C62.444 76.0575 54.6929 79.0531 47.8057 82.6651L55.4009 152.036L54.0189 220.367C54.0189 220.367 97.0927 251.107 138.396 215.207V122.361L136.457 85.4385C136.231 81.1332 132.576 77.7931 128.473 78.3588C126.13 78.6818 123.431 78.6193 120.675 77.6623L112.101 67.2975L86.2058 67.7843V67.7842V67.7842Z" fill="#6C63FF"/>
<g id="Group">
<path id="Vector_4" d="M159.447 10.5563C160.753 13.6255 161.286 16.7476 161.113 19.4541L175.33 47.8734L162.151 54.5253L149.148 24.9805C147.106 23.297 145.243 20.7896 143.936 17.7204C140.952 10.7088 142.005 3.4211 146.288 1.44277C150.571 -0.535556 156.463 3.54464 159.447 10.5562V10.5563V10.5563Z" fill="#A0616A"/>
<path id="right-hand" d="M120.675 77.6622L124.597 79.5307C128.195 75.5013 139.034 76.1352 144.293 76.6576L167.404 78.9531L156.612 43.781L172.859 36.9699L192.273 75.8916C193.447 82.4943 190.813 89.2033 185.533 93.0556L136.001 122.359L130.243 82.2208L120.675 77.6622V77.6622V77.6622Z" fill="#A0616A"/>
</g>
<g id="left-hand">
<path id="Vector_5" d="M0.895118 242.639C1.14182 239.291 2.0939 236.279 3.47816 233.982L3.89493 201.938L18.5262 202.59L16.5281 235.026C17.5595 237.517 18.059 240.645 17.8123 243.992C17.2486 251.639 13.0046 257.536 8.33306 257.162C3.6615 256.789 0.331392 250.286 0.895018 242.639L0.895098 242.639L0.895118 242.639V242.639Z" fill="#A0616A"/>
<path id="g-243" d="M58.6483 91.4304L51.9248 80.7917C51.9248 80.7917 40.9592 82.9721 35.1327 91.5851C29.3062 100.198 7.28234 153.02 7.28234 153.02L3.05301 212.65L19.4345 209.135L27.3386 163.913L52.7543 127.733L58.6483 91.4304L58.6483 91.4304V91.4304Z" fill="#A0616A"/>
</g>
<g id="head">
<path id="head_2" d="M98.7924 63.1957C111.722 63.1957 122.203 52.2772 122.203 38.8084C122.203 25.3397 111.722 14.4211 98.7924 14.4211C85.8632 14.4211 75.382 25.3397 75.382 38.8084C75.382 52.2772 85.8632 63.1957 98.7924 63.1957Z" fill="#A0616A"/>
<path id="hair" d="M122.203 42.0431C123.082 37.3945 109.513 30.6282 109.537 30.6361C111.643 31.3365 108.331 35.3566 106.167 34.8827C106.167 34.8827 102.988 36.5675 104.72 38.0167C98.7483 37.4835 90.7693 31.5716 84.7976 31.0383C82.3957 30.8196 81.4654 36.8532 79.956 38.8084C77.6723 41.8026 75.382 35.8479 76.2271 43.7809H75.8859C74.6391 40.65 73.3922 37.4643 72.9854 34.101C72.5916 30.7376 73.1429 27.1144 75.2034 24.4893C75.8859 23.6006 73.2046 20.675 73.9265 19.8273C76.2233 17.0791 80.6764 15.5749 82.7238 12.6354C85.434 8.74136 88.5176 11.4899 94.1607 8.21499C95.6371 7.35818 98.2032 7.0498 99.8385 7.49466L103.658 8.53371C102.913 9.69714 103.834 11.2316 105.165 11.0432L110.141 10.3384C112.018 10.9673 113.803 11.897 114.643 13.6881C115.155 14.7546 115.247 15.9987 115.641 17.1199C116.362 19.1844 118.069 20.6747 119.434 22.3427C123.103 23.4559 123.3 26.3133 123.3 31.1051C126.72 33.1035 123.151 37.5718 122.203 42.0431Z" fill="#2F2E41"/>
</g>
</g>
</svg>
